<svg width="250" height="200" viewBox="0 0 250 200" fill="none" xmlns="http://www.w3.org/2000/svg">
  <path fill-rule="evenodd" clip-rule="evenodd" d="M63 134h91c.515 0 1.017-.056 1.5-.161.483.105.985.161 1.5.161h52a7 7 0 1 0 0-14h-6a7 7 0 1 1 0-14h19a7 7 0 1 0 0-14h-22a7 7 0 1 0 0-14h-64a7 7 0 1 0 0-14H79a7 7 0 1 0 0 14H39a7 7 0 1 0 0 14h25a7 7 0 1 1 0 14H24a7 7 0 1 0 0 14h39a7 7 0 1 0 0 14Zm163 0a7 7 0 1 0 0-14 7 7 0 0 0 0 14Z" fill="#F3F7FF"/>
  <path fill-rule="evenodd" clip-rule="evenodd" d="M168.577 126.075c-2.577 1.925-5.089 3.735-7.933 5.299l.165 14.083a2 2 0 0 1-3.22 1.609l-12.663-9.743A66.52 66.52 0 0 1 130 139c-30.376 0-55-20.147-55-45s24.624-45 55-45 55 20.147 55 45c0 6.879-1.886 13.397-5.259 19.227a42.661 42.661 0 0 1-2.015 3.154s-1.409 2.119-4.226 5.119c-2.817 3-4.923 4.575-4.923 4.575Z" fill="#fff"/>
  <path clip-rule="evenodd" d="M168.577 126.075c-2.577 1.925-5.089 3.735-7.933 5.299l.165 14.083a2 2 0 0 1-3.22 1.609l-12.663-9.743A66.52 66.52 0 0 1 130 139c-30.376 0-55-20.147-55-45s24.624-45 55-45 55 20.147 55 45c0 6.879-1.886 13.397-5.259 19.227a42.661 42.661 0 0 1-2.015 3.154s-1.409 2.119-4.226 5.119c-2.817 3-4.923 4.575-4.923 4.575Z" stroke="#1F64E7" stroke-width="2.5" stroke-linecap="round"/>
  <path fill-rule="evenodd" clip-rule="evenodd" d="M162.853 81.59c5.304 0 10.413-.633 15.198-1.803 1.91 4.35 2.949 9.036 2.949 13.92 0 6.336-1.749 12.34-4.877 17.71-.576.991-1.2 1.959-1.868 2.905-1.055 1.493-1.807 2.547-2.47 3.392-1.566 1.999-2.63 2.83-6.014 5.536a50.556 50.556 0 0 1-7.356 4.881l.153 12.972c.012 1.017.321 2.885-.703 2.897-.416.005-1.952-1.163-2.282-1.416l-10.21-9.117c-4.401 1.006-10.576 1.689-15.373 1.689-28.167 0-51-18.557-51-41.449C79 74.961 94.313 59.122 115.328 54c5.504 15.874 24.695 27.59 47.525 27.59Zm-52.562 6.558c-3.305 0-5.984 2.697-5.984 6.023 0 3.326 2.679 6.023 5.984 6.023s5.984-2.697 5.984-6.023c0-3.326-2.679-6.023-5.984-6.023Zm18.95 0c-3.305 0-5.984 2.697-5.984 6.023 0 3.326 2.679 6.023 5.984 6.023s5.984-2.697 5.984-6.023c0-3.326-2.679-6.023-5.984-6.023Zm18.95 0c-3.305 0-5.984 2.697-5.984 6.023 0 3.326 2.679 6.023 5.984 6.023s5.985-2.697 5.985-6.023c0-3.326-2.68-6.023-5.985-6.023Z" fill="#E8F0FE"/>
  <path fill-rule="evenodd" clip-rule="evenodd" d="M110 88a6 6 0 1 1 0 12 6 6 0 0 1 0-12Zm19 0a6 6 0 1 1 0 12 6 6 0 0 1 0-12Zm19 0a6 6 0 1 1 0 12 6 6 0 0 1 0-12Z" fill="#fff" stroke="#1F64E7" stroke-width="2.5"/>
  <path d="M89.662 79.311a34.341 34.341 0 0 0-2.35 4.761m20.71-20.999c-6.553 3.128-12.085 7.551-16.083 12.847" stroke="#75A4FE" stroke-width="2.5" stroke-linecap="round"/>
</svg>
